<mxfile host="65bd71144e">
    <diagram id="Qm1wgdAbv6t-hR0ltIOR" name="Page-1">
        <mxGraphModel dx="2078" dy="958" grid="0" gridSize="10" guides="1" tooltips="1" connect="1" arrows="1" fold="1" page="0" pageScale="1" pageWidth="850" pageHeight="1100" background="#1b212c" math="0" shadow="0">
            <root>
                <mxCell id="0"/>
                <mxCell id="1" parent="0"/>
                <mxCell id="2" value="&lt;font color=&quot;#0f0f0f&quot;&gt;Authentication&lt;/font&gt;" style="whiteSpace=wrap;html=1;aspect=fixed;fillColor=#E5CCFF;shadow=1;rounded=0;strokeColor=#E6E6B8;fontStyle=1" vertex="1" parent="1">
                    <mxGeometry x="160" y="280" width="160" height="160" as="geometry"/>
                </mxCell>
                <mxCell id="3" value="&lt;font color=&quot;#0f0f0f&quot;&gt;Research&lt;/font&gt;" style="whiteSpace=wrap;html=1;aspect=fixed;fillColor=#E5CCFF;shadow=1;rounded=0;strokeColor=#E6E6B8;fontStyle=1" vertex="1" parent="1">
                    <mxGeometry x="356" y="280" width="160" height="160" as="geometry"/>
                </mxCell>
                <mxCell id="4" value="&lt;font color=&quot;#0f0f0f&quot;&gt;Buy/Sell&lt;/font&gt;" style="whiteSpace=wrap;html=1;aspect=fixed;fillColor=#E5CCFF;shadow=1;rounded=0;strokeColor=#E6E6B8;fontStyle=1" vertex="1" parent="1">
                    <mxGeometry x="552" y="280" width="160" height="160" as="geometry"/>
                </mxCell>
                <mxCell id="5" value="&lt;font color=&quot;#0f0f0f&quot;&gt;Notifications&lt;/font&gt;" style="whiteSpace=wrap;html=1;aspect=fixed;fillColor=#E5CCFF;shadow=1;rounded=0;strokeColor=#E6E6B8;fontStyle=1" vertex="1" parent="1">
                    <mxGeometry x="748" y="280" width="160" height="160" as="geometry"/>
                </mxCell>
                <mxCell id="6" value="&lt;font color=&quot;#0f0f0f&quot;&gt;Create an individual login username and alphanumeric required password in order to set up account.&lt;/font&gt;" style="whiteSpace=wrap;html=1;aspect=fixed;fillColor=#FFFFCC;shadow=1;rounded=0;strokeColor=#E6E6B8;fontStyle=0" vertex="1" parent="1">
                    <mxGeometry x="160" y="478" width="160" height="160" as="geometry"/>
                </mxCell>
                <mxCell id="7" value="&lt;font color=&quot;#0f0f0f&quot;&gt;Multi-factor user authentication.&lt;/font&gt;" style="whiteSpace=wrap;html=1;aspect=fixed;fillColor=#FFFFCC;shadow=1;rounded=0;strokeColor=#E6E6B8;fontStyle=0" vertex="1" parent="1">
                    <mxGeometry x="160" y="676" width="160" height="160" as="geometry"/>
                </mxCell>
                <mxCell id="8" value="&lt;font color=&quot;#0f0f0f&quot;&gt;Check biggest losers / winners of the day, month and year.&lt;/font&gt;" style="whiteSpace=wrap;html=1;aspect=fixed;fillColor=#FFFFCC;shadow=1;rounded=0;strokeColor=#E6E6B8;fontStyle=0" vertex="1" parent="1">
                    <mxGeometry x="356" y="478" width="160" height="160" as="geometry"/>
                </mxCell>
                <mxCell id="9" value="&lt;font color=&quot;#0f0f0f&quot;&gt;Newsfeed to report headline news that may affect the users' investments.&lt;/font&gt;" style="whiteSpace=wrap;html=1;aspect=fixed;fillColor=#FFFFCC;shadow=1;rounded=0;strokeColor=#E6E6B8;fontStyle=0" vertex="1" parent="1">
                    <mxGeometry x="356" y="676" width="160" height="160" as="geometry"/>
                </mxCell>
                <mxCell id="10" value="&lt;font color=&quot;#0f0f0f&quot;&gt;Purchase more stocks, sell off current holdings.&lt;/font&gt;" style="whiteSpace=wrap;html=1;aspect=fixed;fillColor=#FFFFCC;shadow=1;rounded=0;strokeColor=#E6E6B8;fontStyle=0" vertex="1" parent="1">
                    <mxGeometry x="552" y="478" width="160" height="160" as="geometry"/>
                </mxCell>
                <mxCell id="11" value="&lt;font color=&quot;#0f0f0f&quot;&gt;User is automatically made aware of any large moves happening to their investments so that they may make adjustments.&lt;/font&gt;" style="whiteSpace=wrap;html=1;aspect=fixed;fillColor=#FFFFCC;shadow=1;rounded=0;strokeColor=#E6E6B8;fontStyle=0" vertex="1" parent="1">
                    <mxGeometry x="748" y="478" width="160" height="160" as="geometry"/>
                </mxCell>
                <mxCell id="12" value="&lt;font color=&quot;#ffffff&quot; style=&quot;font-size: 200px&quot;&gt;{&lt;/font&gt;" style="text;html=1;align=center;verticalAlign=middle;resizable=0;points=[];autosize=1;strokeColor=none;fillColor=none;fontColor=#0F0F0F;" vertex="1" parent="1">
                    <mxGeometry x="47" y="318.5" width="77" height="83" as="geometry"/>
                </mxCell>
                <mxCell id="13" value="&lt;font style=&quot;font-size: 32px&quot;&gt;Customer Features&lt;/font&gt;" style="text;html=1;align=center;verticalAlign=bottom;resizable=0;points=[];autosize=1;strokeColor=none;fillColor=none;fontSize=200;fontColor=#FFFFFF;" vertex="1" parent="1">
                    <mxGeometry x="-273" y="138" width="284" height="302" as="geometry"/>
                </mxCell>
                <mxCell id="14" value="Story Map" style="text;html=1;align=center;verticalAlign=middle;resizable=0;points=[];autosize=1;strokeColor=none;fillColor=none;fontSize=64;fontColor=#FFFFFF;" vertex="1" parent="1">
                    <mxGeometry x="160" y="50" width="302" height="81" as="geometry"/>
                </mxCell>
                <mxCell id="15" value="&lt;font color=&quot;#ffffff&quot; style=&quot;font-size: 200px&quot;&gt;{&lt;/font&gt;" style="text;html=1;align=center;verticalAlign=middle;resizable=0;points=[];autosize=1;strokeColor=none;fillColor=none;fontColor=#0F0F0F;" vertex="1" parent="1">
                    <mxGeometry x="47" y="593" width="77" height="83" as="geometry"/>
                </mxCell>
                <mxCell id="16" value="&lt;font style=&quot;font-size: 32px&quot;&gt;Description and capabilities&lt;/font&gt;" style="text;html=1;align=center;verticalAlign=bottom;resizable=0;points=[];autosize=1;strokeColor=none;fillColor=none;fontSize=200;fontColor=#FFFFFF;" vertex="1" parent="1">
                    <mxGeometry x="-389" y="374" width="400" height="302" as="geometry"/>
                </mxCell>
            </root>
        </mxGraphModel>
    </diagram>
</mxfile>